<?xml version="1.0" standalone="no"?>
<!DOCTYPE svg PUBLIC "-//W3C//DTD SVG 20010904//EN"
 "http://www.w3.org/TR/2001/REC-SVG-20010904/DTD/svg10.dtd">
<svg version="1.0" xmlns="http://www.w3.org/2000/svg"
 width="96.000000pt" height="54.000000pt" viewBox="0 0 96.000000 54.000000"
 preserveAspectRatio="xMidYMid meet">

<g transform="translate(0.000000,54.000000) scale(0.100000,-0.100000)"
fill="#61DAFB" stroke="none">
<path d="M139 423 c-13 -16 -12 -17 4 -4 9 7 17 15 17 17 0 8 -8 3 -21 -13z"/>
<path d="M810 436 c0 -2 8 -10 18 -17 15 -13 16 -12 3 4 -13 16 -21 21 -21 13z"/>
<path d="M774 408 c15 -23 45 -44 51 -36 1 2 -14 17 -33 33 -35 30 -36 30 -18
3z"/>
<path d="M167 395 c-29 -26 -28 -32 2 -15 10 5 21 16 25 25 7 19 6 19 -27 -10z"/>
<path d="M777 369 c12 -12 24 -21 27 -18 2 2 -8 13 -22 23 l-27 19 22 -24z"/>
<path d="M176 365 c-11 -8 -15 -15 -9 -15 6 0 16 7 23 15 16 19 11 19 -14 0z"/>
<path d="M297 363 c-4 -3 -7 -51 -7 -105 l0 -98 35 0 c33 0 35 2 35 36 0 33 2
35 28 32 22 -2 28 -8 30 -35 3 -29 7 -33 33 -33 28 0 29 2 29 43 0 24 -5 48
-12 55 -7 7 -11 30 -9 51 2 31 -2 42 -18 50 -21 12 -134 15 -144 4z m101 -65
c-2 -13 -10 -23 -18 -23 -8 0 -16 10 -18 23 -3 17 2 22 18 22 16 0 21 -5 18
-22z"/>
<path d="M537 352 c-20 -22 -22 -85 -4 -100 6 -6 29 -13 50 -17 51 -10 42 -29
-16 -33 -39 -3 -47 -6 -47 -23 0 -17 7 -19 69 -19 81 0 94 10 89 72 -3 43 -3
43 -51 52 -57 11 -57 30 1 34 37 3 42 6 42 28 0 23 -3 24 -58 24 -44 0 -63 -5
-75 -18z"/>
<path d="M194 344 c-18 -14 -18 -15 4 -4 12 6 22 13 22 15 0 8 -5 6 -26 -11z"/>
<path d="M224 339 c-3 -6 -20 -17 -38 -25 -17 -7 -23 -13 -14 -14 16 0 81 49
66 50 -4 0 -10 -5 -14 -11z"/>
<path d="M784 336 c11 -9 24 -16 30 -16 12 0 7 5 -24 19 -24 11 -24 11 -6 -3z"/>
<path d="M118 293 c7 -3 16 -2 19 1 4 3 -2 6 -13 5 -11 0 -14 -3 -6 -6z"/>
<path d="M838 293 c7 -3 16 -2 19 1 4 3 -2 6 -13 5 -11 0 -14 -3 -6 -6z"/>
<path d="M78 223 c7 -3 16 -2 19 1 4 3 -2 6 -13 5 -11 0 -14 -3 -6 -6z"/>
<path d="M765 220 c-3 -6 1 -7 9 -4 18 7 21 14 7 14 -6 0 -13 -4 -16 -10z"/>
<path d="M818 213 c7 -3 16 -2 19 1 4 3 -2 6 -13 5 -11 0 -14 -3 -6 -6z"/>
<path d="M764 188 l-19 -23 25 20 c14 11 27 21 29 22 2 2 0 3 -6 3 -5 0 -18
-10 -29 -22z"/>
<path d="M138 193 c7 -3 16 -2 19 1 4 3 -2 6 -13 5 -11 0 -14 -3 -6 -6z"/>
<path d="M848 193 c7 -3 16 -2 19 1 4 3 -2 6 -13 5 -11 0 -14 -3 -6 -6z"/>
<path d="M170 186 c0 -2 7 -7 16 -10 8 -3 12 -2 9 4 -6 10 -25 14 -25 6z"/>
<path d="M795 180 c-3 -6 1 -7 9 -4 18 7 21 14 7 14 -6 0 -13 -4 -16 -10z"/>
<path d="M180 156 c0 -2 8 -10 18 -17 15 -13 16 -12 3 4 -13 16 -21 21 -21 13z"/>
<path d="M785 140 c-10 -11 -13 -20 -8 -20 13 0 38 29 31 35 -3 3 -13 -4 -23
-15z"/>
<path d="M160 134 c0 -8 43 -43 53 -44 4 0 -4 11 -19 25 -28 26 -34 29 -34 19z"/>
<path d="M820 110 c-9 -6 -10 -10 -3 -10 6 0 15 5 18 10 8 12 4 12 -15 0z"/>
<path d="M130 96 c0 -2 7 -7 16 -10 8 -3 12 -2 9 4 -6 10 -25 14 -25 6z"/>
<path d="M695 60 c-16 -7 -17 -9 -3 -9 9 -1 20 4 23 9 7 11 7 11 -20 0z"/>
</g>
</svg>
