<svg width="70" height="60" fill="white" xmlns="http://www.w3.org/2000/svg" xmlns:xlink="http://www.w3.org/1999/xlink" version="1.1">
 <defs>
  <symbol overflow="visible" id="v">
   <path id="svg_1" d="m20.609,-1.2344c-1.0625,0.55469 -2.1719,0.96875 -3.3281,1.25c-1.1484,0.28125 -2.3438,0.42188 -3.5938,0.42188c-3.7422,0 -6.7031,-1.0391 -8.8906,-3.125c-2.1797,-2.0938 -3.2656,-4.9258 -3.2656,-8.5c0,-3.582 1.0859,-6.4141 3.2656,-8.5c2.1875,-2.0938 5.1484,-3.1406 8.8906,-3.1406c1.25,0 2.4453,0.14062 3.5938,0.42188c1.1562,0.27344 2.2656,0.68359 3.3281,1.2344l0,4.6406c-1.0742,-0.72656 -2.1328,-1.2578 -3.1719,-1.5938c-1.043,-0.34375 -2.1367,-0.51562 -3.2812,-0.51562c-2.0625,0 -3.6875,0.66406 -4.875,1.9844c-1.1797,1.3242 -1.7656,3.1484 -1.7656,5.4688c0,2.3125 0.58594,4.1328 1.7656,5.4531c1.1875,1.3242 2.8125,1.9844 4.875,1.9844c1.1445,0 2.2383,-0.17188 3.2812,-0.51562c1.0391,-0.34375 2.0977,-0.87891 3.1719,-1.6094l0,4.64058z"/>
  </symbol>
  <symbol overflow="visible" id="d">
   <path id="svg_2" d="m15.078,-12.25c-0.46875,-0.21875 -0.9375,-0.37891 -1.4062,-0.48438c-0.46094,-0.10156 -0.92969,-0.15625 -1.4062,-0.15625c-1.375,0 -2.4375,0.44531 -3.1875,1.3281c-0.74219,0.88672 -1.1094,2.1562 -1.1094,3.8125l0,7.75l-5.3906,0l0,-16.828l5.3906,0l0,2.7656c0.6875,-1.1016 1.4766,-1.9062 2.375,-2.4062c0.89453,-0.50781 1.9688,-0.76562 3.2188,-0.76562c0.17578,0 0.36719,0.01172 0.57812,0.03125c0.21875,0.01172 0.52344,0.04297 0.92188,0.09375l0.0155,4.85925z"/>
  </symbol>
  <symbol overflow="visible" id="b">
   <path id="svg_3" d="m19.375,-8.4531l0,1.5312l-12.562,0c0.125,1.2617 0.57812,2.2109 1.3594,2.8438c0.78125,0.625 1.875,0.9375 3.2812,0.9375c1.125,0 2.2812,-0.16406 3.4688,-0.5c1.1875,-0.33203 2.4062,-0.84375 3.6562,-1.5312l0,4.1562c-1.2734,0.48047 -2.543,0.83984 -3.8125,1.0781c-1.2734,0.25 -2.543,0.375 -3.8125,0.375c-3.043,0 -5.4062,-0.76953 -7.0938,-2.3125c-1.6875,-1.5508 -2.5312,-3.7227 -2.5312,-6.5156c0,-2.75 0.82812,-4.9102 2.4844,-6.4844c1.6562,-1.5703 3.9375,-2.3594 6.8438,-2.3594c2.6328,0 4.7422,0.79688 6.3281,2.3906c1.5938,1.5938 2.3906,3.7266 2.3906,6.3906l-0.0005,0.0001zm-5.5312,-1.7969c0,-1.0195 -0.29688,-1.8438 -0.89062,-2.4688s-1.3711,-0.9375 -2.3281,-0.9375c-1.043,0 -1.8906,0.29688 -2.5469,0.89062c-0.64844,0.58594 -1.0547,1.4219 -1.2188,2.5156l6.98442,0.00008z"/>
  </symbol>
  <symbol overflow="visible" id="j">
   <path id="svg_4" d="m10.125,-7.5781c-1.125,0 -1.9688,0.19531 -2.5312,0.57812c-0.5625,0.38672 -0.84375,0.94922 -0.84375,1.6875c0,0.67969 0.22266,1.2109 0.67188,1.5938c0.45703,0.38672 1.0938,0.57812 1.9062,0.57812c1.0078,0 1.8594,-0.35938 2.5469,-1.0781c0.69531,-0.72656 1.0469,-1.6406 1.0469,-2.7344l0,-0.625l-2.79693,-0.00004zm8.2188,-2.0156l0,9.5938l-5.4219,0l0,-2.5c-0.71875,1.0234 -1.5312,1.7656 -2.4375,2.2344c-0.89844,0.46875 -1.9922,0.70312 -3.2812,0.70312c-1.75,0 -3.168,-0.50391 -4.25,-1.5156c-1.0859,-1.0195 -1.625,-2.3438 -1.625,-3.9688c0,-1.9688 0.67578,-3.4102 2.0312,-4.3281c1.3516,-0.92578 3.4844,-1.3906 6.3906,-1.3906l3.1719,0l0,-0.42188c0,-0.85156 -0.33984,-1.4766 -1.0156,-1.875c-0.66797,-0.39453 -1.7148,-0.59375 -3.1406,-0.59375c-1.1484,0 -2.2148,0.11719 -3.2031,0.34375c-0.99219,0.23047 -1.9141,0.57812 -2.7656,1.0469l0,-4.1094c1.1445,-0.28125 2.2969,-0.49219 3.4531,-0.64062c1.1641,-0.14453 2.332,-0.21875 3.5,-0.21875c3.0312,0 5.2188,0.60156 6.5625,1.7969c1.3516,1.1992 2.0312,3.1484 2.0312,5.8438l0,-0.00017z"/>
  </symbol>
  <symbol overflow="visible" id="c">
   <path id="svg_5" d="m8.4531,-21.609l0,4.7812l5.5469,0l0,3.8438l-5.5469,0l0,7.1406c0,0.78125 0.15625,1.3125 0.46875,1.5938c0.3125,0.27344 0.92578,0.40625 1.8438,0.40625l2.7656,0l0,3.8438l-4.6094,0c-2.125,0 -3.6328,-0.44141 -4.5156,-1.3281c-0.88672,-0.88281 -1.3281,-2.3906 -1.3281,-4.5156l0,-7.1406l-2.6719,0l0,-3.8438l2.6719,0l0,-4.7812l5.37495,-0.00015z"/>
  </symbol>
  <symbol overflow="visible" id="i">
   <path id="svg_6" d="m14.031,-14.359l0,-9.0156l5.4062,0l0,23.375l-5.4062,0l0,-2.4375c-0.74219,0.99219 -1.5586,1.7188 -2.4531,2.1875c-0.88672,0.45703 -1.918,0.6875 -3.0938,0.6875c-2.0742,0 -3.7773,-0.82031 -5.1094,-2.4688c-1.3359,-1.6445 -2,-3.7656 -2,-6.3594s0.66406,-4.7109 2,-6.3594c1.332,-1.6562 3.0352,-2.4844 5.1094,-2.4844c1.1641,0 2.1953,0.23438 3.0938,0.70312c0.89453,0.46875 1.7109,1.1953 2.4531,2.1719l0,0.00008zm-3.5469,10.891c1.1562,0 2.0352,-0.42188 2.6406,-1.2656c0.60156,-0.84375 0.90625,-2.0625 0.90625,-3.6562c0,-1.6016 -0.30469,-2.8281 -0.90625,-3.6719c-0.60547,-0.84375 -1.4844,-1.2656 -2.6406,-1.2656c-1.1484,0 -2.0234,0.42188 -2.625,1.2656c-0.60547,0.84375 -0.90625,2.0703 -0.90625,3.6719c0,1.5938 0.30078,2.8125 0.90625,3.6562c0.60156,0.84375 1.4766,1.2656 2.625,1.2656z"/>
  </symbol>
  <symbol overflow="visible" id="g">
   <path id="svg_7" d="m11.531,-3.4688c1.1562,0 2.0352,-0.42188 2.6406,-1.2656c0.60156,-0.84375 0.90625,-2.0625 0.90625,-3.6562c0,-1.6016 -0.30469,-2.8281 -0.90625,-3.6719c-0.60547,-0.84375 -1.4844,-1.2656 -2.6406,-1.2656c-1.1484,0 -2.0273,0.42969 -2.6406,1.2812c-0.61719,0.84375 -0.92188,2.0625 -0.92188,3.6562c0,1.5859 0.30469,2.8047 0.92188,3.6562c0.61328,0.84375 1.4922,1.2656 2.6406,1.2656l0,0.0001zm-3.5625,-10.891c0.73828,-0.97656 1.5547,-1.7031 2.4531,-2.1719c0.90625,-0.46875 1.9414,-0.70312 3.1094,-0.70312c2.0703,0 3.7734,0.82812 5.1094,2.4844c1.332,1.6484 2,3.7656 2,6.3594s-0.66797,4.7148 -2,6.3594c-1.3359,1.6484 -3.0391,2.4688 -5.1094,2.4688c-1.168,0 -2.2031,-0.23438 -3.1094,-0.70312c-0.89844,-0.46875 -1.7148,-1.1914 -2.4531,-2.1719l0,2.4375l-5.3906,0l0,-23.375l5.3906,0l0,9.01554z"/>
  </symbol>
  <symbol overflow="visible" id="f">
   <path id="svg_8" d="m0.375,-16.828l5.375,0l4.5312,11.422l3.8438,-11.422l5.375,0l-7.0781,18.422c-0.71094,1.875 -1.5391,3.1797 -2.4844,3.9219c-0.94922,0.75 -2.1992,1.125 -3.75,1.125l-3.1094,0l0,-3.5312l1.6875,0c0.90625,0 1.5664,-0.14844 1.9844,-0.4375c0.41406,-0.29297 0.73828,-0.8125 0.96875,-1.5625l0.15625,-0.46875l-7.5,-17.46895z"/>
  </symbol>
  <symbol overflow="visible" id="h">
   <path id="svg_9" d="m11.812,-13.75c0.90625,0 1.5938,-0.19531 2.0625,-0.59375c0.47656,-0.40625 0.71875,-1 0.71875,-1.7812c0,-0.76953 -0.24219,-1.3594 -0.71875,-1.7656c-0.46875,-0.40625 -1.1562,-0.60938 -2.0625,-0.60938l-3.2031,0l0,4.75l3.2031,-0.00007zm0.1875,9.8125c1.1641,0 2.0391,-0.24219 2.625,-0.73438c0.58203,-0.48828 0.875,-1.2266 0.875,-2.2188c0,-0.97656 -0.29297,-1.707 -0.875,-2.1875c-0.57422,-0.48828 -1.4492,-0.73438 -2.625,-0.73438l-3.3906,0l0,5.875l3.3906,0.00006zm5.375,-8.0625c1.25,0.35547 2.2109,1.0234 2.8906,2c0.67578,0.96875 1.0156,2.1641 1.0156,3.5781c0,2.1562 -0.73047,3.7656 -2.1875,4.8281c-1.4609,1.0625 -3.6836,1.5938 -6.6719,1.5938l-9.5938,0l0,-22.422l8.6719,0c3.1133,0 5.3672,0.46875 6.7656,1.4062c1.4062,0.9375 2.1094,2.4453 2.1094,4.5156c0,1.0938 -0.25781,2.0273 -0.76562,2.7969c-0.51172,0.76172 -1.2578,1.3281 -2.2344,1.7031l0.00012,0.0002z"/>
  </symbol>
  <symbol overflow="visible" id="a">
   <path id="svg_10" d="m10.594,-13.391c-1.1992,0 -2.1094,0.43359 -2.7344,1.2969c-0.625,0.85547 -0.9375,2.0898 -0.9375,3.7031c0,1.6055 0.3125,2.8398 0.9375,3.7031c0.625,0.85547 1.5352,1.2812 2.7344,1.2812c1.1641,0 2.0625,-0.42578 2.6875,-1.2812c0.625,-0.86328 0.9375,-2.0977 0.9375,-3.7031c0,-1.6133 -0.3125,-2.8477 -0.9375,-3.7031c-0.625,-0.86328 -1.5234,-1.2969 -2.6875,-1.2969zm0,-3.8438c2.8945,0 5.1562,0.78125 6.7812,2.3438s2.4375,3.7305 2.4375,6.5c0,2.7617 -0.8125,4.9219 -2.4375,6.4844s-3.8867,2.3438 -6.7812,2.3438c-2.9062,0 -5.1797,-0.78125 -6.8125,-2.3438c-1.6367,-1.5625 -2.4531,-3.7227 -2.4531,-6.4844c0,-2.7695 0.81641,-4.9375 2.4531,-6.5c1.6328,-1.5625 3.9062,-2.3438 6.8125,-2.3438z"/>
  </symbol>
  <symbol overflow="visible" id="e">
   <path id="svg_11" d="m18.172,-14.031c0.6875,-1.0391 1.4922,-1.832 2.4219,-2.375c0.9375,-0.55078 1.9688,-0.82812 3.0938,-0.82812c1.9375,0 3.4102,0.60156 4.4219,1.7969c1.0078,1.1875 1.5156,2.918 1.5156,5.1875l0,10.25l-5.4062,0l0,-8.7656c0.00781,-0.13281 0.01563,-0.26953 0.01563,-0.40625c0.00781,-0.14453 0.01562,-0.34766 0.01562,-0.60938c0,-1.1875 -0.17969,-2.0469 -0.53125,-2.5781c-0.35547,-0.53906 -0.92188,-0.8125 -1.7031,-0.8125c-1.0234,0 -1.8086,0.42188 -2.3594,1.2656c-0.55469,0.83594 -0.83984,2.0469 -0.85938,3.6406l0,8.2656l-5.4062,0l0,-8.7656c0,-1.8633 -0.16406,-3.0625 -0.48438,-3.5938c-0.32422,-0.53906 -0.89844,-0.8125 -1.7188,-0.8125c-1.0312,0 -1.8281,0.42188 -2.3906,1.2656c-0.55469,0.84375 -0.82812,2.0547 -0.82812,3.625l0,8.2812l-5.4219,0l0,-16.828l5.4219,0l0,2.4688c0.65625,-0.94531 1.4102,-1.6602 2.2656,-2.1406c0.85156,-0.48828 1.7969,-0.73438 2.8281,-0.73438c1.1641,0 2.1914,0.28125 3.0781,0.84375c0.89453,0.5625 1.5703,1.3516 2.0312,2.3594l-0.00002,-0.00012z"/>
  </symbol>
  <symbol overflow="visible" id="u">
   <path id="svg_12" d="m18.438,-21.719l0,4.75c-1.2422,-0.55078 -2.4492,-0.96875 -3.625,-1.25c-1.168,-0.28125 -2.2734,-0.42188 -3.3125,-0.42188c-1.375,0 -2.3984,0.19531 -3.0625,0.57812c-0.65625,0.375 -0.98438,0.96484 -0.98438,1.7656c0,0.60547 0.21875,1.0742 0.65625,1.4062c0.44531,0.33594 1.2578,0.62109 2.4375,0.85938l2.4688,0.5c2.4883,0.5 4.2578,1.2617 5.3125,2.2812c1.0508,1.0234 1.5781,2.4766 1.5781,4.3594c0,2.4688 -0.73438,4.3086 -2.2031,5.5156c-1.4688,1.2109 -3.7109,1.8125 -6.7188,1.8125c-1.4297,0 -2.8594,-0.13672 -4.2969,-0.40625c-1.4297,-0.26953 -2.8555,-0.67188 -4.2812,-1.2031l0,-4.875c1.4258,0.76172 2.8047,1.3359 4.1406,1.7188c1.3438,0.38672 2.6328,0.57812 3.875,0.57812c1.2578,0 2.2227,-0.20703 2.8906,-0.625c0.67578,-0.42578 1.0156,-1.0312 1.0156,-1.8125c0,-0.69531 -0.23047,-1.2344 -0.6875,-1.6094c-0.44922,-0.38281 -1.3555,-0.72656 -2.7188,-1.0312l-2.2344,-0.5c-2.25,-0.47656 -3.8984,-1.2422 -4.9375,-2.2969c-1.0312,-1.0508 -1.5469,-2.4688 -1.5469,-4.25c0,-2.2383 0.71875,-3.957 2.1562,-5.1562c1.4453,-1.1953 3.5234,-1.7969 6.2344,-1.7969c1.2266,0 2.4922,0.09375 3.7969,0.28125c1.3008,0.17969 2.6484,0.45312 4.0469,0.82812l0.00013,0.00004z"/>
  </symbol>
  <symbol overflow="visible" id="t">
   <path id="svg_13" d="m2.5781,-23.375l5.3906,0l0,23.375l-5.3906,0l0,-23.375z"/>
  </symbol>
  <symbol overflow="visible" id="s">
   <path id="svg_14" d="m15.734,-16.297l0,4.0781c-1.1562,-0.47656 -2.2734,-0.83594 -3.3438,-1.0781c-1.0742,-0.23828 -2.0859,-0.35938 -3.0312,-0.35938c-1.0234,0 -1.7812,0.13281 -2.2812,0.39062c-0.49219,0.25 -0.73438,0.64062 -0.73438,1.1719c0,0.42969 0.1875,0.76172 0.5625,1c0.375,0.23047 1.0469,0.39844 2.0156,0.5l0.95312,0.14062c2.75,0.34375 4.5977,0.91797 5.5469,1.7188c0.95703,0.80469 1.4375,2.0625 1.4375,3.7812c0,1.793 -0.66406,3.1406 -1.9844,4.0469c-1.3242,0.89844 -3.2969,1.3438 -5.9219,1.3438c-1.1172,0 -2.2656,-0.08984 -3.4531,-0.26562c-1.1875,-0.17578 -2.4062,-0.4375 -3.6562,-0.78125l0,-4.0938c1.0703,0.52344 2.1719,0.91406 3.2969,1.1719c1.125,0.26172 2.2695,0.39062 3.4375,0.39062c1.0508,0 1.8438,-0.14453 2.375,-0.4375c0.53125,-0.28906 0.79688,-0.72266 0.79688,-1.2969c0,-0.47656 -0.18359,-0.83203 -0.54688,-1.0625c-0.36719,-0.23828 -1.0938,-0.42188 -2.1875,-0.54688l-0.95312,-0.125c-2.3867,-0.30078 -4.0625,-0.85938 -5.0312,-1.6719c-0.96094,-0.8125 -1.4375,-2.0391 -1.4375,-3.6875c0,-1.7812 0.60938,-3.1016 1.8281,-3.9688c1.2188,-0.86328 3.0938,-1.2969 5.625,-1.2969c0.98828,0 2.0312,0.07813 3.125,0.23438c1.0938,0.14844 2.2812,0.38281 3.5625,0.70312l-0.00012,0.00007z"/>
  </symbol>
  <symbol overflow="visible" id="r">
   <path id="svg_15" d="m13.656,-23.375l0,3.5312l-2.9688,0c-0.76172,0 -1.293,0.14062 -1.5938,0.42188c-0.30469,0.27344 -0.45312,0.74609 -0.45312,1.4219l0,1.1719l4.5938,0l0,3.8438l-4.5938,0l0,12.984l-5.375,0l0,-12.984l-2.6875,0l0,-3.8438l2.6875,0l0,-1.1719c0,-1.832 0.50781,-3.1875 1.5312,-4.0625c1.0195,-0.875 2.6016,-1.3125 4.75,-1.3125l4.10952,0.00002z"/>
  </symbol>
  <symbol overflow="visible" id="q">
   <path id="svg_16" d="m19.5,-10.25l0,10.25l-5.4062,0l0,-7.8125c0,-1.4688 -0.03906,-2.4766 -0.10938,-3.0312c-0.0625,-0.55078 -0.17188,-0.95703 -0.32812,-1.2188c-0.21094,-0.35156 -0.49609,-0.625 -0.85938,-0.8125c-0.35547,-0.19531 -0.76562,-0.29688 -1.2344,-0.29688c-1.1172,0 -1.9961,0.43359 -2.6406,1.2969c-0.63672,0.86719 -0.95312,2.0625 -0.95312,3.5938l0,8.2812l-5.3906,0l0,-23.375l5.3906,0l0,9.0156c0.80078,-0.97656 1.6562,-1.7031 2.5625,-2.1719c0.91406,-0.46875 1.9258,-0.70312 3.0312,-0.70312c1.9453,0 3.4219,0.60156 4.4219,1.7969c1.0078,1.1875 1.5156,2.918 1.5156,5.1875z"/>
  </symbol>
  <symbol overflow="visible" id="p">
   <path id="svg_17" d="m2.8281,-22.422l6.4531,0l8.1562,15.375l0,-15.375l5.4844,0l0,22.422l-6.4531,0l-8.1562,-15.391l0,15.391l-5.4844,0l0,-22.422z"/>
  </symbol>
  <symbol overflow="visible" id="o">
   <path id="svg_18" d="m2.4062,-6.5469l0,-10.281l5.4062,0l0,1.6875c0,0.90625 -0.00781,2.0547 -0.01562,3.4375c-0.01172,1.375 -0.01563,2.293 -0.01563,2.75c0,1.3555 0.03125,2.3281 0.09375,2.9219c0.07031,0.59375 0.19531,1.0273 0.375,1.2969c0.21875,0.35547 0.50391,0.625 0.85938,0.8125c0.35156,0.1875 0.75781,0.28125 1.2188,0.28125c1.125,0 2.0039,-0.42578 2.6406,-1.2812c0.64453,-0.86328 0.96875,-2.0625 0.96875,-3.5938l0,-8.3125l5.375,0l0,16.828l-5.375,0l0,-2.4375c-0.8125,0.98047 -1.6719,1.7031 -2.5781,2.1719s-1.9023,0.70312 -2.9844,0.70312c-1.9492,0 -3.4336,-0.59375 -4.4531,-1.7812c-1.0117,-1.1953 -1.5156,-2.9297 -1.5156,-5.2031l-0.00003,-0.00027z"/>
  </symbol>
  <symbol overflow="visible" id="n">
   <path id="svg_19" d="m19.5,-10.25l0,10.25l-5.4062,0l0,-7.8438c0,-1.4453 -0.03906,-2.4453 -0.10938,-3c-0.0625,-0.55078 -0.17188,-0.95703 -0.32812,-1.2188c-0.21094,-0.35156 -0.49609,-0.625 -0.85938,-0.8125c-0.35547,-0.19531 -0.76562,-0.29688 -1.2344,-0.29688c-1.1172,0 -1.9961,0.43359 -2.6406,1.2969c-0.63672,0.86719 -0.95312,2.0625 -0.95312,3.5938l0,8.2812l-5.3906,0l0,-16.828l5.3906,0l0,2.4688c0.80078,-0.97656 1.6562,-1.7031 2.5625,-2.1719c0.91406,-0.46875 1.9258,-0.70312 3.0312,-0.70312c1.9453,0 3.4219,0.60156 4.4219,1.7969c1.0078,1.1875 1.5156,2.918 1.5156,5.1875l0,-0.0001z"/>
  </symbol>
  <symbol overflow="visible" id="m">
   <path id="svg_20" d="m2.8281,-22.422l9.5938,0c2.8516,0 5.0391,0.63672 6.5625,1.9062c1.5312,1.2617 2.2969,3.0625 2.2969,5.4062c0,2.3555 -0.76562,4.168 -2.2969,5.4375c-1.5234,1.2617 -3.7109,1.8906 -6.5625,1.8906l-3.8125,0l0,7.7812l-5.7812,0l-0.0001,-22.4217zm5.7812,4.1875l0,6.2656l3.2031,0c1.1133,0 1.9766,-0.26953 2.5938,-0.8125c0.61328,-0.55078 0.92188,-1.3281 0.92188,-2.3281s-0.30859,-1.7695 -0.92188,-2.3125c-0.61719,-0.53906 -1.4805,-0.8125 -2.5938,-0.8125l-3.2031,0z"/>
  </symbol>
  <symbol overflow="visible" id="l">
   <path id="svg_21" d="m2.5781,-16.828l5.3906,0l0,16.531c0,2.25 -0.54297,3.9688 -1.625,5.1562c-1.0859,1.1875 -2.6523,1.7812 -4.7031,1.7812l-2.6562,0l0,-3.5312l0.92188,0c1.0195,0 1.7188,-0.23047 2.0938,-0.6875c0.38281,-0.46094 0.57812,-1.3672 0.57812,-2.7188l-0.0001,-16.5309zm0,-6.5469l5.3906,0l0,4.3906l-5.3906,0l0,-4.3906z"/>
  </symbol>
  <symbol overflow="visible" id="k">
   <path id="svg_22" d="m16.172,-16.297l0,4.3906c-0.73047,-0.5 -1.4648,-0.86719 -2.2031,-1.1094c-0.73047,-0.25 -1.4922,-0.375 -2.2812,-0.375c-1.5,0 -2.6719,0.44531 -3.5156,1.3281c-0.83594,0.875 -1.25,2.1016 -1.25,3.6719c0,1.5742 0.41406,2.7969 1.25,3.6719c0.84375,0.875 2.0156,1.3125 3.5156,1.3125c0.84375,0 1.6406,-0.125 2.3906,-0.375c0.75781,-0.25 1.457,-0.61719 2.0938,-1.1094l0,4.3906c-0.83594,0.3125 -1.6875,0.54688 -2.5625,0.70312c-0.86719,0.15625 -1.7305,0.23438 -2.5938,0.23438c-3.043,0 -5.418,-0.77344 -7.125,-2.3281c-1.7109,-1.5625 -2.5625,-3.7266 -2.5625,-6.5c0,-2.7812 0.85156,-4.9453 2.5625,-6.5c1.707,-1.5625 4.082,-2.3438 7.125,-2.3438c0.875,0 1.7383,0.07812 2.5938,0.23438c0.86328,0.15625 1.7188,0.39062 2.5625,0.70312l-0.0001,0.0001z"/>
  </symbol>
 </defs>
 <g>
  <title>Layer 1</title>
  <g id="svg_23">
   <path id="svg_24" d="m347.95,401.59c-8.543,0 -15.465,6.9219 -15.465,15.465l0,89.527l-29.312,-25.629c-6.4297,-5.6133 -16.191,-4.9609 -21.816,1.457c-5.625,6.4297 -4.9727,16.195 1.457,21.82l54.949,48.062c2.9336,2.5586 6.5586,3.8203 10.172,3.8203l0.01172,0c3.6133,0 7.2422,-1.2617 10.172,-3.8281l54.922,-48.062c6.4297,-5.625 7.0781,-15.391 1.4531,-21.816c-5.6133,-6.4297 -15.383,-7.0703 -21.816,-1.4531l-29.281,25.617l0.00781,-89.523c0.01172,-8.5352 -6.9141,-15.457 -15.453,-15.457l-0.00163,-0.0001z"/>
   <path id="svg_25" d="m480.13,279.33l0,-177.19c0,-54.281 -44.16,-98.441 -98.438,-98.441l-67.508,0c-54.289,0 -98.457,44.16 -98.457,98.441l0,177.19c0,54.281 44.168,98.449 98.457,98.449l67.508,0c54.277,0 98.438,-44.164 98.438,-98.449zm-30.93,0c0,37.238 -30.281,67.527 -67.516,67.527l-67.5,0c-37.238,0 -67.531,-30.289 -67.531,-67.527l0,-177.19c0,-37.23 30.297,-67.52 67.531,-67.52l67.508,0c37.23,0 67.516,30.289 67.516,67.52l0,177.19l-0.008,0z"/>
   <path id="svg_26" d="m347.95,91.383c-8.543,0 -15.465,6.9219 -15.465,15.465l0,45.945c0,8.543 6.9219,15.465 15.465,15.465c8.543,0 15.465,-6.9219 15.465,-15.465l0,-45.945c0,-8.5391 -6.9258,-15.465 -15.465,-15.465z"/>
   <use id="svg_27" xlink:href="#v" y="652.30859" x="70"/>
   <use id="svg_28" xlink:href="#d" y="652.30859" x="92.58203"/>
   <use id="svg_29" xlink:href="#b" y="652.30859" x="107.75391"/>
   <use id="svg_30" xlink:href="#j" y="652.30859" x="128.625"/>
   <use id="svg_31" xlink:href="#c" y="652.30859" x="149.38672"/>
   <use id="svg_32" xlink:href="#b" y="652.30859" x="164.09375"/>
   <use id="svg_33" xlink:href="#i" y="652.30859" x="184.96484"/>
   <use id="svg_34" xlink:href="#g" y="652.30859" x="217.70313"/>
   <use id="svg_35" xlink:href="#f" y="652.30859" x="239.72656"/>
   <use id="svg_36" xlink:href="#h" y="652.30859" x="270.49609"/>
   <use id="svg_37" xlink:href="#a" y="652.30859" x="293.94922"/>
   <use id="svg_38" xlink:href="#e" y="652.30859" x="315.08594"/>
   <use id="svg_39" xlink:href="#u" y="652.30859" x="347.14844"/>
   <use id="svg_40" xlink:href="#f" y="652.30859" x="369.30859"/>
   <use id="svg_41" xlink:href="#e" y="652.30859" x="389.36719"/>
   <use id="svg_42" xlink:href="#g" y="652.30859" x="421.42578"/>
   <use id="svg_43" xlink:href="#a" y="652.30859" x="443.45313"/>
   <use id="svg_44" xlink:href="#t" y="652.30859" x="464.58984"/>
   <use id="svg_45" xlink:href="#s" y="652.30859" x="475.13672"/>
   <use id="svg_46" xlink:href="#r" y="683.07813" x="70"/>
   <use id="svg_47" xlink:href="#d" y="683.07813" x="83.38672"/>
   <use id="svg_48" xlink:href="#a" y="683.07813" x="98.5625"/>
   <use id="svg_49" xlink:href="#e" y="683.07813" x="119.69922"/>
   <use id="svg_50" xlink:href="#c" y="683.07813" x="162.47266"/>
   <use id="svg_51" xlink:href="#q" y="683.07813" x="177.17969"/>
   <use id="svg_52" xlink:href="#b" y="683.07813" x="199.08594"/>
   <use id="svg_53" xlink:href="#p" y="683.07813" x="230.66797"/>
   <use id="svg_54" xlink:href="#a" y="683.07813" x="256.41797"/>
   <use id="svg_55" xlink:href="#o" y="683.07813" x="277.55859"/>
   <use id="svg_56" xlink:href="#n" y="683.07813" x="299.46094"/>
   <use id="svg_57" xlink:href="#m" y="683.07813" x="332.07813"/>
   <use id="svg_58" xlink:href="#d" y="683.07813" x="354.62891"/>
   <use id="svg_59" xlink:href="#a" y="683.07813" x="369.80469"/>
   <use id="svg_60" xlink:href="#l" y="683.07813" x="390.94531"/>
   <use id="svg_61" xlink:href="#b" y="683.07813" x="401.49219"/>
   <use id="svg_62" xlink:href="#k" y="683.07813" x="422.35938"/>
   <use id="svg_63" xlink:href="#c" y="683.07813" x="440.59766"/>
  </g>
 </g>
</svg>