<?xml version="1.0" encoding="UTF-8"?>
<svg xmlns="http://www.w3.org/2000/svg" xmlns:xlink="http://www.w3.org/1999/xlink" width="70px" height="60px" fill="white" stroke="white" viewBox="0 0 70 60" version="1.1">
<g id="surface1">
<path style=" stroke:none;fill-rule:nonzero;fill:rgb(100%,100%,100%);fill-opacity:1;" d="M 34.796875 40.160156 C 33.941406 40.160156 33.25 40.851562 33.25 41.707031 L 33.25 50.65625 L 30.316406 48.09375 C 29.675781 47.535156 28.699219 47.597656 28.136719 48.242188 C 27.574219 48.882812 27.636719 49.859375 28.28125 50.421875 L 33.777344 55.230469 C 34.070312 55.484375 34.433594 55.609375 34.792969 55.609375 C 35.15625 55.609375 35.519531 55.484375 35.8125 55.226562 L 41.304688 50.421875 C 41.945312 49.859375 42.011719 48.882812 41.449219 48.242188 C 40.886719 47.597656 39.910156 47.535156 39.269531 48.09375 L 36.339844 50.65625 L 36.339844 41.703125 C 36.339844 40.851562 35.648438 40.160156 34.796875 40.160156 Z M 34.796875 40.160156 "/>
<path style=" stroke:none;fill-rule:nonzero;fill:rgb(100%,100%,100%);fill-opacity:1;" d="M 48.011719 27.933594 L 48.011719 10.214844 C 48.011719 4.785156 43.597656 0.371094 38.167969 0.371094 L 31.417969 0.371094 C 25.988281 0.371094 21.574219 4.785156 21.574219 10.214844 L 21.574219 27.933594 C 21.574219 33.359375 25.988281 37.777344 31.417969 37.777344 L 38.167969 37.777344 C 43.597656 37.777344 48.011719 33.363281 48.011719 27.933594 Z M 44.921875 27.933594 C 44.921875 31.65625 41.890625 34.6875 38.167969 34.6875 L 31.417969 34.6875 C 27.695312 34.6875 24.664062 31.65625 24.664062 27.933594 L 24.664062 10.214844 C 24.664062 6.492188 27.695312 3.460938 31.417969 3.460938 L 38.167969 3.460938 C 41.890625 3.460938 44.921875 6.492188 44.921875 10.214844 Z M 44.921875 27.933594 "/>
<path style=" stroke:none;fill-rule:nonzero;fill:rgb(100%,100%,100%);fill-opacity:1;" d="M 34.796875 9.136719 C 33.941406 9.136719 33.25 9.832031 33.25 10.683594 L 33.25 15.28125 C 33.25 16.132812 33.941406 16.824219 34.796875 16.824219 C 35.648438 16.824219 36.339844 16.132812 36.339844 15.28125 L 36.339844 10.683594 C 36.339844 9.832031 35.648438 9.136719 34.796875 9.136719 Z M 34.796875 9.136719 "/>
</g>
</svg>
